#N canvas 0 0 1522 762 10;
#X declare -lib mrpeach;
#X obj 40 20 declare -lib mrpeach;
#X obj 220 30 loadbang;
#X msg 220 60 connect localhost 11111;
#X obj 30 50 import mrpeach;
#X obj 220 120 mrpeach/udpreceive 11111;
#X obj 220 170 mrpeach/unpackOSC;
#X floatatom 220 260 5 0 0 0 - - -, f 5;
#X obj 230 215 mrpeach/routeOSC /posX;
#X obj 640 720 output~;
#X floatatom 600 240 5 0 0 0 - - -, f 5;
#X obj 590 200 mrpeach/routeOSC /posY;
#X obj 390 210 mrpeach/routeOSC /r;
#X floatatom 410 260 5 0 0 0 - - -, f 5;
#X obj 1310 20 mrpeach/routeOSC /blue;
#X floatatom 1310 50 5 0 0 0 - - -, f 5;
#X floatatom 1080 110 5 0 0 0 - - -, f 5;
#X obj 190 370 line~;
#X obj 600 360 line~;
#X obj 240 420 osc~;
#X obj 120 410 osc~;
#X obj 110 660 osc~;
#X msg 600 310 \$1 5;
#X msg 210 310 \$1 5;
#X obj 180 500 osc~;
#X obj 800 420 osc~;
#X obj 910 420 osc~;
#X obj 1140 370 +~;
#X obj 1270 310 osc~;
#X obj 1170 480 osc~;
#X obj 40 130 mrpeach/routeOSC /posX2;
#X obj 30 500 mrpeach/routeOSC /posX4;
#X obj 40 320 mrpeach/routeOSC /posX3;
#X floatatom 42 532 5 0 0 0 - - -, f 5;
#X obj 12 642 line~;
#X msg 32 582 \$1 5;
#X floatatom 52 362 5 0 0 0 - - -, f 5;
#X obj 22 472 line~;
#X msg 42 412 \$1 5;
#X floatatom 70 160 5 0 0 0 - - -, f 5;
#X obj 36 271 line~;
#X msg 56 211 \$1 5;
#X obj 750 200 mrpeach/routeOSC /posY2;
#X obj 930 200 mrpeach/routeOSC /posY3;
#X floatatom 750 240 5 0 0 0 - - -, f 5;
#X obj 750 360 line~;
#X msg 750 310 \$1 5;
#X floatatom 930 240 5 0 0 0 - - -, f 5;
#X obj 930 360 line~;
#X msg 930 310 \$1 5;
#X obj 630 420 osc~;
#X msg 450 340 0 \, 1 200;
#X obj 450 370 line~;
#X obj 450 400 sqrt~;
#X obj 520 480 cos~;
#X obj 430 310 del;
#X obj 410 280 / 2.5;
#X obj 450 430 *~ 20;
#X obj 1070 70 mrpeach/routeOSC /red;
#X obj 930 270 abs;
#X obj 40 390 abs;
#X obj 40 560 abs;
#N canvas 426 126 452 308 escalar 0;
#X text 146 -71 min;
#X text 231 -71 max;
#X text 313 -71 min;
#X text 401 -71 max;
#X obj 60 -43 inlet;
#X obj 60 141 outlet;
#X obj 143 -20 f \$1;
#X obj 226 -20 f \$2;
#X obj 309 -20 f \$3;
#X obj 393 -20 f \$4;
#X obj 143 -43 inlet;
#X obj 226 -43 inlet;
#X obj 309 -43 inlet;
#X obj 393 -43 inlet;
#X obj 445 -37 loadbang;
#X text 186 -94 input;
#X text 346 -94 output;
#X obj 60 50 expr (1 - (($f3-$f1) / ($f3 - $f2))) * ($f5 - $f4) + $f4
;
#X connect 4 0 17 0;
#X connect 6 0 17 1;
#X connect 7 0 17 2;
#X connect 8 0 17 3;
#X connect 9 0 17 4;
#X connect 10 0 6 0;
#X connect 11 0 7 0;
#X connect 12 0 8 0;
#X connect 13 0 9 0;
#X connect 14 0 9 0;
#X connect 14 0 8 0;
#X connect 14 0 7 0;
#X connect 14 0 6 0;
#X connect 17 0 5 0;
#X restore 1320 120 pd escalar;
#X msg 1340 90 0;
#X msg 1330 150 255;
#N canvas 536 230 450 301 escalar 0;
#X text 146 -71 min;
#X text 231 -71 max;
#X text 313 -71 min;
#X text 401 -71 max;
#X obj 60 -43 inlet;
#X obj 60 141 outlet;
#X obj 143 -20 f \$1;
#X obj 226 -20 f \$2;
#X obj 309 -20 f \$3;
#X obj 393 -20 f \$4;
#X obj 143 -43 inlet;
#X obj 226 -43 inlet;
#X obj 309 -43 inlet;
#X obj 393 -43 inlet;
#X obj 445 -37 loadbang;
#X text 186 -94 input;
#X text 346 -94 output;
#X obj 60 50 expr (1 - (($f3-$f1) / ($f3 - $f2))) * ($f5 - $f4) + $f4
;
#X connect 4 0 17 0;
#X connect 6 0 17 1;
#X connect 7 0 17 2;
#X connect 8 0 17 3;
#X connect 9 0 17 4;
#X connect 10 0 6 0;
#X connect 11 0 7 0;
#X connect 12 0 8 0;
#X connect 13 0 9 0;
#X connect 14 0 9 0;
#X connect 14 0 8 0;
#X connect 14 0 7 0;
#X connect 14 0 6 0;
#X connect 17 0 5 0;
#X restore 1096 180 pd escalar;
#X msg 1116 150 0;
#X msg 1156 150 255;
#X obj 1320 230 line~;
#X msg 1320 180 \$1 5;
#X obj 1100 290 line~;
#X msg 1100 240 \$1 5;
#X obj 1380 50 loadbang;
#X msg 1196 150 100;
#X msg 1410 140 100, f 8;
#X msg 1390 90 1000;
#X msg 1250 150 1000;
#X connect 1 0 2 0;
#X connect 2 0 4 0;
#X connect 4 0 5 0;
#X connect 5 0 7 0;
#X connect 5 0 10 0;
#X connect 5 0 11 0;
#X connect 5 0 13 0;
#X connect 5 0 29 0;
#X connect 5 0 31 0;
#X connect 5 0 30 0;
#X connect 5 0 41 0;
#X connect 5 0 42 0;
#X connect 5 0 57 0;
#X connect 6 0 22 0;
#X connect 7 0 6 0;
#X connect 9 0 21 0;
#X connect 10 0 9 0;
#X connect 11 0 12 0;
#X connect 12 0 55 0;
#X connect 13 0 14 0;
#X connect 14 0 61 0;
#X connect 15 0 64 0;
#X connect 16 0 18 0;
#X connect 17 0 49 0;
#X connect 18 0 8 0;
#X connect 19 0 8 0;
#X connect 20 0 8 0;
#X connect 21 0 17 0;
#X connect 22 0 16 0;
#X connect 23 0 8 0;
#X connect 24 0 8 1;
#X connect 25 0 8 1;
#X connect 26 0 28 0;
#X connect 27 0 26 1;
#X connect 28 0 8 0;
#X connect 28 0 8 1;
#X connect 29 0 38 0;
#X connect 30 0 32 0;
#X connect 31 0 35 0;
#X connect 32 0 60 0;
#X connect 33 0 20 0;
#X connect 34 0 33 0;
#X connect 35 0 59 0;
#X connect 36 0 23 0;
#X connect 37 0 36 0;
#X connect 38 0 40 0;
#X connect 39 0 19 0;
#X connect 40 0 39 0;
#X connect 41 0 43 0;
#X connect 42 0 46 0;
#X connect 43 0 45 0;
#X connect 44 0 24 0;
#X connect 45 0 44 0;
#X connect 46 0 58 0;
#X connect 47 0 25 0;
#X connect 48 0 47 0;
#X connect 49 0 8 1;
#X connect 50 0 51 0;
#X connect 51 0 52 0;
#X connect 52 0 56 0;
#X connect 53 0 8 0;
#X connect 53 0 8 1;
#X connect 54 0 50 0;
#X connect 55 0 54 0;
#X connect 56 0 53 0;
#X connect 57 0 15 0;
#X connect 58 0 48 0;
#X connect 59 0 37 0;
#X connect 60 0 34 0;
#X connect 61 0 68 0;
#X connect 62 0 61 1;
#X connect 63 0 61 2;
#X connect 64 0 70 0;
#X connect 65 0 64 1;
#X connect 66 0 64 2;
#X connect 67 0 27 0;
#X connect 68 0 67 0;
#X connect 69 0 26 0;
#X connect 70 0 69 0;
#X connect 71 0 62 0;
#X connect 71 0 74 0;
#X connect 71 0 73 0;
#X connect 71 0 63 0;
#X connect 71 0 72 0;
#X connect 71 0 75 0;
#X connect 71 0 66 0;
#X connect 71 0 65 0;
#X connect 72 0 64 3;
#X connect 73 0 61 3;
#X connect 74 0 61 4;
#X connect 75 0 64 4;
